<svg id="Layer_1" xmlns="http://www.w3.org/2000/svg" width="612" height="82.9" viewBox="0 0 612 82.9"><style>.st0{opacity:0.15;fill:#8E451F;}</style><path d="M0 0  L0.0000 0.5972 L1.0000 1.1608 L2.0000 0.8338 L3.0000 0.9786 L4.0000 0.4641 L5.0000 0.0433 L6.0000 0.0287 L7.0000 0.1772 L8.0000 0.3267 L9.0000 0.1284 L10.0000 0.5878 L11.0000 0.8994 L12.0000 0.7192 L13.0000 0.1351 L14.0000 0.4717 L15.0000 0.5439 L16.0000 1.2101 L17.0000 0.3433 L18.0000 1.0139 L19.0000 0.2968 L20.0000 0.4064 L21.0000 0.9173 L22.0000 0.2056 L23.0000 0.3873 L24.0000 0.4471 L25.0000 1.4014 L26.0000 0.9958 L27.0000 0.3004 L28.0000 0.7786 L29.0000 0.9968 L30.0000 0.0116 L31.0000 0.3839 L32.0000 0.6673 L33.0000 0.7737 L34.0000 0.9602 L35.0000 0.4568 L36.0000 1.4324 L37.0000 1.8332 L38.0000 2.1229 L39.0000 2.8600 L40.0000 2.5170 L41.0000 2.2875 L42.0000 1.7241 L43.0000 2.5541 L44.0000 2.8824 L45.0000 2.1303 L46.0000 3.0297 L47.0000 2.5334 L48.0000 2.1843 L49.0000 2.1193 L50.0000 1.8546 L51.0000 1.8498 L52.0000 2.6657 L53.0000 1.8400 L54.0000 1.7142 L55.0000 1.6057 L56.0000 1.6711 L57.0000 1.7141 L58.0000 1.7338 L59.0000 1.9204 L60.0000 2.2185 L61.0000 2.2104 L62.0000 2.3063 L63.0000 2.4080 L64.0000 1.9818 L65.0000 1.2959 L66.0000 1.9911 L67.0000 2.8108 L68.0000 1.8561 L69.0000 1.5517 L70.0000 2.3499 L71.0000 1.9579 L72.0000 1.7235 L73.0000 1.4588 L74.0000 0.5078 L75.0000 0.9329 L76.0000 1.0265 L77.0000 0.2550 L78.0000 1.1424 L79.0000 1.2992 L80.0000 1.3599 L81.0000 0.5392 L82.0000 0.9939 L83.0000 1.3986 L84.0000 0.8742 L85.0000 1.6253 L86.0000 1.6148 L87.0000 2.1660 L88.0000 2.8279 L89.0000 3.1346 L90.0000 2.4227 L91.0000 2.5219 L92.0000 1.8550 L93.0000 1.8385 L94.0000 1.2546 L95.0000 1.4879 L96.0000 1.4748 L97.0000 0.7646 L98.0000 0.4883 L99.0000 0.3183 L100.0000 0.7256 L101.0000 0.2488 L102.0000 0.9127 L103.0000 1.8022 L104.0000 1.4945 L105.0000 1.5760 L106.0000 1.3355 L107.0000 2.2551 L108.0000 2.7034 L109.0000 2.0381 L110.0000 2.9307 L111.0000 2.1059 L112.0000 2.5081 L113.0000 3.0629 L114.0000 2.2155 L115.0000 1.7025 L116.0000 0.7954 L117.0000 1.3856 L118.0000 1.8968 L119.0000 1.1689 L120.0000 1.0028 L121.0000 1.1653 L122.0000 1.2793 L123.0000 1.7154 L124.0000 1.2859 L125.0000 1.8173 L126.0000 2.5122 L127.0000 3.2648 L128.0000 2.5511 L129.0000 2.6586 L130.0000 3.6542 L131.0000 3.7255 L132.0000 4.0661 L133.0000 3.9492 L134.0000 3.3795 L135.0000 4.3425 L136.0000 4.0295 L137.0000 4.3909 L138.0000 4.3260 L139.0000 3.3572 L140.0000 2.9515 L141.0000 3.1768 L142.0000 3.6022 L143.0000 2.6222 L144.0000 2.4163 L145.0000 2.4567 L146.0000 2.1823 L147.0000 2.6825 L148.0000 2.7337 L149.0000 3.4356 L150.0000 4.0593 L151.0000 4.0673 L152.0000 3.6748 L153.0000 3.3187 L154.0000 2.9299 L155.0000 3.0518 L156.0000 3.2960 L157.0000 4.1108 L158.0000 4.0955 L159.0000 3.3784 L160.0000 4.1988 L161.0000 4.2622 L162.0000 3.4943 L163.0000 3.3007 L164.0000 3.6932 L165.0000 2.8977 L166.0000 3.3849 L167.0000 3.9945 L168.0000 3.1861 L169.0000 2.4347 L170.0000 2.7773 L171.0000 3.0987 L172.0000 2.9605 L173.0000 2.8738 L174.0000 3.4523 L175.0000 3.2494 L176.0000 4.1915 L177.0000 3.6208 L178.0000 3.2677 L179.0000 4.2024 L180.0000 4.7836 L181.0000 4.3825 L182.0000 4.6695 L183.0000 5.1149 L184.0000 5.1040 L185.0000 6.0689 L186.0000 5.4738 L187.0000 5.4916 L188.0000 6.4887 L189.0000 6.9465 L190.0000 7.4246 L191.0000 8.4099 L192.0000 8.9540 L193.0000 9.6858 L194.0000 9.5719 L195.0000 9.5828 L196.0000 9.4340 L197.0000 9.3314 L198.0000 8.9610 L199.0000 8.6673 L200.0000 8.9586 L201.0000 8.1167 L202.0000 8.2237 L203.0000 8.7296 L204.0000 8.3294 L205.0000 8.9017 L206.0000 8.0159 L207.0000 8.4163 L208.0000 7.5912 L209.0000 7.2552 L210.0000 6.8000 L211.0000 7.6227 L212.0000 7.9250 L213.0000 8.0240 L214.0000 7.7845 L215.0000 7.7661 L216.0000 8.2860 L217.0000 7.6566 L218.0000 8.5411 L219.0000 9.0151 L220.0000 9.8365 L221.0000 9.0838 L222.0000 9.6645 L223.0000 9.9955 L224.0000 9.7961 L225.0000 9.4971 L226.0000 8.9947 L227.0000 8.8939 L228.0000 8.0644 L229.0000 8.5581 L230.0000 8.1568 L231.0000 7.4675 L232.0000 7.6440 L233.0000 6.7208 L234.0000 5.8778 L235.0000 5.2920 L236.0000 6.0830 L237.0000 6.6585 L238.0000 6.7743 L239.0000 6.3379 L240.0000 7.3282 L241.0000 8.0598 L242.0000 8.6668 L243.0000 8.2563 L244.0000 8.5287 L245.0000 8.5109 L246.0000 8.5255 L247.0000 8.8065 L248.0000 9.7218 L249.0000 9.5299 L250.0000 9.1984 L251.0000 9.5264 L252.0000 9.5026 L253.0000 8.7876 L254.0000 8.4712 L255.0000 8.3956 L256.0000 8.1090 L257.0000 9.0348 L258.0000 9.5167 L259.0000 9.3092 L260.0000 9.1398 L261.0000 9.1950 L262.0000 9.7931 L263.0000 9.9786 L264.0000 9.7279 L265.0000 9.4490 L266.0000 8.9850 L267.0000 9.0073 L268.0000 9.8241 L269.0000 9.5128 L270.0000 9.0967 L271.0000 9.3235 L272.0000 9.0830 L273.0000 9.4924 L274.0000 9.3378 L275.0000 9.8008 L276.0000 8.8772 L277.0000 8.9600 L278.0000 8.7603 L279.0000 8.2399 L280.0000 7.4554 L281.0000 7.2248 L282.0000 6.7316 L283.0000 7.0948 L284.0000 7.9942 L285.0000 7.8048 L286.0000 7.4875 L287.0000 7.9491 L288.0000 7.3949 L289.0000 6.5851 L290.0000 6.7532 L291.0000 5.9327 L292.0000 6.8188 L293.0000 7.3022 L294.0000 7.3944 L295.0000 7.6034 L296.0000 6.8922 L297.0000 6.5194 L298.0000 7.4153 L299.0000 7.7467 L300.0000 8.2369 L301.0000 8.8782 L302.0000 7.9625 L303.0000 8.6045 L304.0000 7.7564 L305.0000 7.7124 L306.0000 8.4203 L307.0000 9.2125 L308.0000 8.7033 L309.0000 9.5766 L310.0000 9.5984 L311.0000 9.9794 L312.0000 9.8057 L313.0000 9.8157 L314.0000 8.9689 L315.0000 9.8609 L316.0000 9.5317 L317.0000 9.2506 L318.0000 9.4234 L319.0000 9.4100 L320.0000 9.0804 L321.0000 9.2967 L322.0000 9.2500 L323.0000 9.6293 L324.0000 9.4491 L325.0000 9.2592 L326.0000 8.9416 L327.0000 8.7261 L328.0000 8.1760 L329.0000 7.8105 L330.0000 7.3566 L331.0000 6.9317 L332.0000 7.5520 L333.0000 7.2747 L334.0000 6.7629 L335.0000 6.0220 L336.0000 6.0752 L337.0000 6.2007 L338.0000 6.5944 L339.0000 5.8960 L340.0000 6.6714 L341.0000 6.0473 L342.0000 5.2927 L343.0000 4.8111 L344.0000 4.6685 L345.0000 4.0270 L346.0000 3.9379 L347.0000 3.8091 L348.0000 3.9804 L349.0000 4.7724 L350.0000 5.1636 L351.0000 4.9793 L352.0000 4.9611 L353.0000 4.7975 L354.0000 4.2743 L355.0000 4.6774 L356.0000 4.3724 L357.0000 4.1903 L358.0000 5.0471 L359.0000 6.0336 L360.0000 6.3419 L361.0000 6.3314 L362.0000 6.4116 L363.0000 6.5929 L364.0000 6.2677 L365.0000 6.8715 L366.0000 7.2955 L367.0000 7.1089 L368.0000 6.9329 L369.0000 7.8687 L370.0000 8.8571 L371.0000 9.8518 L372.0000 9.5580 L373.0000 9.0240 L374.0000 8.8843 L375.0000 9.8760 L376.0000 9.9999 L377.0000 9.8388 L378.0000 9.4736 L379.0000 9.0788 L380.0000 8.7283 L381.0000 9.6557 L382.0000 9.8326 L383.0000 9.5071 L384.0000 8.6074 L385.0000 8.4795 L386.0000 8.0353 L387.0000 7.5490 L388.0000 8.2058 L389.0000 7.4388 L390.0000 7.3652 L391.0000 7.2698 L392.0000 7.6001 L393.0000 8.0092 L394.0000 7.2343 L395.0000 8.0322 L396.0000 8.0085 L397.0000 7.4227 L398.0000 6.4391 L399.0000 7.0276 L400.0000 6.7047 L401.0000 6.1377 L402.0000 6.9141 L403.0000 6.1345 L404.0000 5.3983 L405.0000 6.1136 L406.0000 6.9720 L407.0000 6.8174 L408.0000 5.9542 L409.0000 6.7761 L410.0000 6.6602 L411.0000 7.2801 L412.0000 6.8343 L413.0000 7.0421 L414.0000 6.7238 L415.0000 7.1371 L416.0000 6.4650 L417.0000 6.0959 L418.0000 6.6812 L419.0000 7.1023 L420.0000 7.1889 L421.0000 7.0376 L422.0000 6.8368 L423.0000 6.0944 L424.0000 5.8221 L425.0000 6.0730 L426.0000 6.1796 L427.0000 6.5844 L428.0000 7.0647 L429.0000 7.1018 L430.0000 7.0409 L431.0000 7.5131 L432.0000 7.4096 L433.0000 8.0786 L434.0000 8.9595 L435.0000 8.3132 L436.0000 8.4685 L437.0000 8.2464 L438.0000 7.8758 L439.0000 8.5229 L440.0000 7.9144 L441.0000 8.2931 L442.0000 8.1284 L443.0000 7.9060 L444.0000 7.9450 L445.0000 8.3553 L446.0000 7.5095 L447.0000 6.6692 L448.0000 7.6256 L449.0000 7.8378 L450.0000 8.2391 L451.0000 9.1226 L452.0000 8.6221 L453.0000 8.3366 L454.0000 8.9538 L455.0000 8.5912 L456.0000 8.1803 L457.0000 8.4827 L458.0000 9.3428 L459.0000 9.3374 L460.0000 9.0083 L461.0000 8.5808 L462.0000 9.2911 L463.0000 9.0968 L464.0000 9.7909 L465.0000 9.3872 L466.0000 9.8350 L467.0000 9.8273 L468.0000 9.5672 L469.0000 9.3880 L470.0000 9.0052 L471.0000 8.3968 L472.0000 7.5926 L473.0000 7.8880 L474.0000 8.0865 L475.0000 8.1514 L476.0000 8.7239 L477.0000 9.4684 L478.0000 9.8091 L479.0000 8.9779 L480.0000 9.1293 L481.0000 8.4266 L482.0000 7.5526 L483.0000 7.0923 L484.0000 6.4285 L485.0000 6.9320 L486.0000 7.2007 L487.0000 6.8562 L488.0000 7.7375 L489.0000 6.8649 L490.0000 7.6008 L491.0000 8.3784 L492.0000 8.8661 L493.0000 9.0615 L494.0000 8.5053 L495.0000 8.9577 L496.0000 9.6175 L497.0000 9.5817 L498.0000 9.0661 L499.0000 9.0624 L500.0000 9.0674 L501.0000 9.4790 L502.0000 8.8341 L503.0000 9.0705 L504.0000 9.3652 L505.0000 9.7449 L506.0000 9.0868 L507.0000 8.7148 L508.0000 9.3811 L509.0000 9.3179 L510.0000 8.6957 L511.0000 8.6501 L512.0000 7.7076 L513.0000 8.5067 L514.0000 8.7954 L515.0000 8.0347 L516.0000 7.2076 L517.0000 7.8876 L518.0000 8.6529 L519.0000 7.7310 L520.0000 7.8104 L521.0000 8.5354 L522.0000 9.1422 L523.0000 8.3281 L524.0000 8.6826 L525.0000 7.7781 L526.0000 6.8265 L527.0000 5.9704 L528.0000 5.3273 L529.0000 4.7791 L530.0000 4.0611 L531.0000 4.7782 L532.0000 5.7560 L533.0000 6.1093 L534.0000 5.6885 L535.0000 5.9127 L536.0000 5.0758 L537.0000 5.4023 L538.0000 4.8284 L539.0000 4.5316 L540.0000 4.0931 L541.0000 3.9034 L542.0000 3.3664 L543.0000 4.1580 L544.0000 3.7515 L545.0000 3.6049 L546.0000 3.8032 L547.0000 3.5456 L548.0000 2.7168 L549.0000 3.2724 L550.0000 3.8421 L551.0000 4.4496 L552.0000 4.2481 L553.0000 3.9586 L554.0000 4.2284 L555.0000 3.4742 L556.0000 3.8413 L557.0000 3.6488 L558.0000 2.7121 L559.0000 3.1153 L560.0000 3.7971 L561.0000 4.2640 L562.0000 4.8255 L563.0000 5.3962 L564.0000 6.1629 L565.0000 5.6221 L566.0000 6.4481 L567.0000 5.6017 L568.0000 6.4214 L569.0000 6.1432 L570.0000 6.6290 L571.0000 7.5200 L572.0000 8.3998 L573.0000 9.1067 L574.0000 9.0959 L575.0000 9.7834 L576.0000 9.1303 L577.0000 9.0810 L578.0000 8.1762 L579.0000 7.2619 L580.0000 8.2389 L581.0000 8.9378 L582.0000 9.3432 L583.0000 9.0916 L584.0000 9.8160 L585.0000 9.0519 L586.0000 8.3694 L587.0000 7.4972 L588.0000 7.3051 L589.0000 8.2809 L590.0000 9.1693 L591.0000 9.4142 L592.0000 8.5450 L593.0000 7.6313 L594.0000 7.2735 L595.0000 7.7273 L596.0000 7.9533 L597.0000 7.2705 L598.0000 7.7185 L599.0000 8.2106 L600.0000 8.9984 L601.0000 8.6463 L602.0000 8.4616 L603.0000 8.1864 L604.0000 7.4192 L605.0000 6.6873 L606.0000 6.0891 L607.0000 5.5165 L608.0000 4.6253 L609.0000 4.7695 L610.0000 5.6453 L611.0000 5.5161 L612.0000 5.3502 L612 236 L0 236 Z" /></svg>