<svg id="Layer_1" xmlns="http://www.w3.org/2000/svg" width="612" height="236.2" viewBox="0 0 612 236.2"><style>.st0{fill:#FFFFFF;}</style><path d="M0 0 L0 236  L0.0000 235.9760 L1.0000 235.0579 L2.0000 234.3235 L3.0000 233.3902 L4.0000 233.6196 L5.0000 232.7314 L6.0000 233.0189 L7.0000 232.8852 L8.0000 232.5729 L9.0000 232.1874 L10.0000 232.2965 L11.0000 232.6452 L12.0000 232.3502 L13.0000 232.3540 L14.0000 232.3270 L15.0000 232.5474 L16.0000 232.1404 L17.0000 232.6573 L18.0000 233.0986 L19.0000 232.2453 L20.0000 232.5063 L21.0000 233.1302 L22.0000 234.0431 L23.0000 234.2284 L24.0000 233.6625 L25.0000 234.0379 L26.0000 234.4598 L27.0000 233.8951 L28.0000 233.7947 L29.0000 233.0007 L30.0000 232.3137 L31.0000 233.0993 L32.0000 232.8061 L33.0000 233.1187 L34.0000 232.3388 L35.0000 232.5229 L36.0000 232.0322 L37.0000 232.7290 L38.0000 233.6641 L39.0000 233.8881 L40.0000 234.4722 L41.0000 234.6979 L42.0000 235.0988 L43.0000 235.3832 L44.0000 235.2795 L45.0000 235.4950 L46.0000 235.3790 L47.0000 235.8321 L48.0000 235.2683 L49.0000 235.2336 L50.0000 235.6394 L51.0000 235.1644 L52.0000 234.5404 L53.0000 235.3676 L54.0000 234.5076 L55.0000 233.9242 L56.0000 233.6286 L57.0000 233.1967 L58.0000 232.9580 L59.0000 233.0996 L60.0000 233.9354 L61.0000 233.0017 L62.0000 233.0603 L63.0000 232.5239 L64.0000 233.2880 L65.0000 232.5724 L66.0000 232.2193 L67.0000 232.6643 L68.0000 233.3244 L69.0000 232.8631 L70.0000 232.4636 L71.0000 232.6260 L72.0000 232.1256 L73.0000 232.4671 L74.0000 232.5994 L75.0000 233.2239 L76.0000 233.6564 L77.0000 233.8898 L78.0000 233.4577 L79.0000 234.0631 L80.0000 234.1702 L81.0000 234.3757 L82.0000 234.9421 L83.0000 234.5784 L84.0000 234.8954 L85.0000 235.3296 L86.0000 235.2914 L87.0000 235.7956 L88.0000 235.1668 L89.0000 235.1521 L90.0000 235.0425 L91.0000 235.0551 L92.0000 235.5458 L93.0000 234.5539 L94.0000 235.2253 L95.0000 234.7798 L96.0000 233.9539 L97.0000 233.0792 L98.0000 232.8292 L99.0000 233.8134 L100.0000 234.5498 L101.0000 235.1923 L102.0000 235.6024 L103.0000 235.6212 L104.0000 235.9521 L105.0000 235.7465 L106.0000 234.7503 L107.0000 234.7479 L108.0000 235.7304 L109.0000 235.1717 L110.0000 235.0709 L111.0000 234.2260 L112.0000 233.7521 L113.0000 233.6929 L114.0000 234.2872 L115.0000 234.7627 L116.0000 234.8148 L117.0000 234.0169 L118.0000 234.3920 L119.0000 234.3482 L120.0000 235.2442 L121.0000 235.2164 L122.0000 234.9264 L123.0000 234.7154 L124.0000 235.0570 L125.0000 235.9196 L126.0000 235.1445 L127.0000 235.3160 L128.0000 235.5067 L129.0000 234.6782 L130.0000 234.6585 L131.0000 235.3563 L132.0000 235.6792 L133.0000 235.0499 L134.0000 234.0811 L135.0000 234.3455 L136.0000 234.0133 L137.0000 234.0866 L138.0000 233.8270 L139.0000 233.7490 L140.0000 234.0096 L141.0000 234.2440 L142.0000 234.8218 L143.0000 234.2528 L144.0000 234.6125 L145.0000 234.7646 L146.0000 235.0449 L147.0000 235.1417 L148.0000 235.8297 L149.0000 235.9094 L150.0000 235.1298 L151.0000 234.2019 L152.0000 234.9104 L153.0000 235.5645 L154.0000 235.2560 L155.0000 234.4165 L156.0000 234.7263 L157.0000 234.6245 L158.0000 235.5116 L159.0000 235.3503 L160.0000 234.8937 L161.0000 235.2792 L162.0000 235.8580 L163.0000 234.9380 L164.0000 234.5303 L165.0000 233.9034 L166.0000 234.7522 L167.0000 235.4556 L168.0000 235.2601 L169.0000 234.8425 L170.0000 234.6900 L171.0000 234.8915 L172.0000 234.7559 L173.0000 234.8558 L174.0000 233.9022 L175.0000 234.6578 L176.0000 234.8630 L177.0000 234.1055 L178.0000 233.5801 L179.0000 234.2031 L180.0000 234.8688 L181.0000 234.5245 L182.0000 233.7159 L183.0000 232.8505 L184.0000 232.9762 L185.0000 232.4186 L186.0000 233.3402 L187.0000 232.3658 L188.0000 232.5391 L189.0000 233.2128 L190.0000 233.7309 L191.0000 233.3784 L192.0000 233.6172 L193.0000 234.3602 L194.0000 234.1979 L195.0000 234.9938 L196.0000 235.7229 L197.0000 235.7076 L198.0000 235.5171 L199.0000 235.6901 L200.0000 235.0771 L201.0000 234.9915 L202.0000 235.0467 L203.0000 235.6678 L204.0000 235.2784 L205.0000 235.7649 L206.0000 235.7304 L207.0000 235.2768 L208.0000 235.1701 L209.0000 235.8842 L210.0000 235.8323 L211.0000 235.3594 L212.0000 235.4008 L213.0000 235.7608 L214.0000 235.0330 L215.0000 235.3755 L216.0000 235.2536 L217.0000 234.4464 L218.0000 235.2280 L219.0000 234.2710 L220.0000 234.1385 L221.0000 234.3926 L222.0000 234.8623 L223.0000 234.8270 L224.0000 235.6130 L225.0000 235.1018 L226.0000 234.2083 L227.0000 234.8269 L228.0000 235.0575 L229.0000 235.5050 L230.0000 235.9949 L231.0000 235.1659 L232.0000 235.5253 L233.0000 234.6539 L234.0000 235.0545 L235.0000 234.0850 L236.0000 233.5013 L237.0000 233.3240 L238.0000 232.4905 L239.0000 232.3325 L240.0000 232.2774 L241.0000 233.2399 L242.0000 232.8150 L243.0000 233.4758 L244.0000 233.1553 L245.0000 233.1769 L246.0000 233.3779 L247.0000 233.3860 L248.0000 232.5278 L249.0000 233.2832 L250.0000 233.6631 L251.0000 233.3327 L252.0000 232.8009 L253.0000 232.1937 L254.0000 232.8075 L255.0000 232.7304 L256.0000 232.2886 L257.0000 232.1841 L258.0000 232.3435 L259.0000 232.4513 L260.0000 232.3641 L261.0000 232.3811 L262.0000 232.1115 L263.0000 232.7165 L264.0000 233.3660 L265.0000 234.2933 L266.0000 233.6449 L267.0000 233.2968 L268.0000 233.8979 L269.0000 233.8951 L270.0000 233.8147 L271.0000 233.2280 L272.0000 232.6213 L273.0000 232.2247 L274.0000 232.8680 L275.0000 232.9231 L276.0000 232.0941 L277.0000 232.7837 L278.0000 232.8715 L279.0000 233.0785 L280.0000 234.0507 L281.0000 234.6717 L282.0000 234.3337 L283.0000 234.8605 L284.0000 234.6965 L285.0000 234.6199 L286.0000 234.7678 L287.0000 235.3453 L288.0000 235.2502 L289.0000 235.6112 L290.0000 234.6542 L291.0000 234.2050 L292.0000 233.8028 L293.0000 234.3472 L294.0000 235.0991 L295.0000 235.1384 L296.0000 234.2186 L297.0000 234.0643 L298.0000 234.5635 L299.0000 233.9399 L300.0000 233.3628 L301.0000 233.0302 L302.0000 232.2692 L303.0000 232.7689 L304.0000 232.7821 L305.0000 233.6198 L306.0000 233.6646 L307.0000 233.4609 L308.0000 233.3999 L309.0000 233.8058 L310.0000 233.1489 L311.0000 233.6928 L312.0000 234.1212 L313.0000 234.6014 L314.0000 235.3436 L315.0000 234.3914 L316.0000 234.0842 L317.0000 233.3622 L318.0000 233.7160 L319.0000 234.5308 L320.0000 235.0959 L321.0000 234.1394 L322.0000 234.2007 L323.0000 234.6287 L324.0000 235.2728 L325.0000 234.4111 L326.0000 234.4141 L327.0000 235.3748 L328.0000 235.0525 L329.0000 234.4920 L330.0000 234.1188 L331.0000 233.3529 L332.0000 233.9048 L333.0000 234.2630 L334.0000 234.3123 L335.0000 233.4110 L336.0000 234.1498 L337.0000 233.1916 L338.0000 233.9375 L339.0000 233.1677 L340.0000 232.4973 L341.0000 232.5153 L342.0000 232.6926 L343.0000 232.9948 L344.0000 233.5407 L345.0000 234.0722 L346.0000 234.3368 L347.0000 234.8193 L348.0000 234.2336 L349.0000 233.5902 L350.0000 233.6141 L351.0000 233.5438 L352.0000 233.0911 L353.0000 232.2064 L354.0000 232.5830 L355.0000 233.4768 L356.0000 233.2230 L357.0000 233.0152 L358.0000 232.2416 L359.0000 232.4293 L360.0000 232.5185 L361.0000 232.2473 L362.0000 232.2865 L363.0000 232.8844 L364.0000 233.4889 L365.0000 233.0231 L366.0000 233.7243 L367.0000 233.5504 L368.0000 233.2467 L369.0000 233.4653 L370.0000 233.9682 L371.0000 234.0252 L372.0000 233.8222 L373.0000 233.8697 L374.0000 233.8001 L375.0000 233.4590 L376.0000 232.7726 L377.0000 232.6875 L378.0000 232.6267 L379.0000 233.2662 L380.0000 233.5343 L381.0000 234.2226 L382.0000 234.0527 L383.0000 234.3760 L384.0000 234.7615 L385.0000 234.1051 L386.0000 234.5477 L387.0000 234.0052 L388.0000 233.0295 L389.0000 233.0395 L390.0000 233.0725 L391.0000 232.6009 L392.0000 232.0505 L393.0000 232.3132 L394.0000 233.2832 L395.0000 232.6521 L396.0000 233.3976 L397.0000 233.2155 L398.0000 232.3613 L399.0000 232.5945 L400.0000 232.9568 L401.0000 232.6496 L402.0000 232.5645 L403.0000 233.5075 L404.0000 233.4761 L405.0000 233.3723 L406.0000 233.6493 L407.0000 232.8009 L408.0000 232.6040 L409.0000 233.5492 L410.0000 233.6541 L411.0000 233.2359 L412.0000 233.2620 L413.0000 233.2196 L414.0000 233.3302 L415.0000 234.0840 L416.0000 233.5680 L417.0000 234.2792 L418.0000 234.0174 L419.0000 233.9479 L420.0000 234.8231 L421.0000 235.6306 L422.0000 235.0825 L423.0000 234.4142 L424.0000 234.2845 L425.0000 233.4403 L426.0000 233.0636 L427.0000 232.9430 L428.0000 233.5978 L429.0000 233.7166 L430.0000 234.1243 L431.0000 234.5307 L432.0000 235.3567 L433.0000 235.2207 L434.0000 235.7890 L435.0000 234.8213 L436.0000 234.9485 L437.0000 235.6734 L438.0000 235.6426 L439.0000 235.3828 L440.0000 235.9006 L441.0000 235.3393 L442.0000 235.2404 L443.0000 235.8847 L444.0000 235.1794 L445.0000 234.2216 L446.0000 233.4481 L447.0000 234.2811 L448.0000 234.4743 L449.0000 234.3965 L450.0000 234.6333 L451.0000 233.6868 L452.0000 233.5837 L453.0000 232.8145 L454.0000 232.9151 L455.0000 232.0933 L456.0000 232.6501 L457.0000 233.2310 L458.0000 233.4988 L459.0000 233.2190 L460.0000 232.3907 L461.0000 232.7439 L462.0000 232.1756 L463.0000 232.7532 L464.0000 232.6620 L465.0000 233.1777 L466.0000 233.6967 L467.0000 234.3580 L468.0000 233.6512 L469.0000 233.1864 L470.0000 232.2347 L471.0000 232.3992 L472.0000 232.5119 L473.0000 232.8388 L474.0000 233.4040 L475.0000 233.8899 L476.0000 233.9124 L477.0000 233.3923 L478.0000 233.6210 L479.0000 234.1912 L480.0000 234.9622 L481.0000 235.4537 L482.0000 234.9765 L483.0000 235.3096 L484.0000 234.7852 L485.0000 234.9665 L486.0000 235.3745 L487.0000 235.8507 L488.0000 235.9567 L489.0000 235.3183 L490.0000 234.3208 L491.0000 233.7140 L492.0000 233.3526 L493.0000 233.7147 L494.0000 232.8421 L495.0000 232.3347 L496.0000 232.6634 L497.0000 232.7968 L498.0000 233.7764 L499.0000 234.1577 L500.0000 234.3001 L501.0000 234.5120 L502.0000 233.7373 L503.0000 232.8829 L504.0000 232.5512 L505.0000 233.1204 L506.0000 232.1298 L507.0000 233.0330 L508.0000 233.5994 L509.0000 233.4276 L510.0000 234.1533 L511.0000 234.2458 L512.0000 234.0238 L513.0000 233.8368 L514.0000 233.7798 L515.0000 234.6200 L516.0000 234.3148 L517.0000 234.4012 L518.0000 234.3995 L519.0000 235.2347 L520.0000 235.2568 L521.0000 235.2301 L522.0000 234.5081 L523.0000 234.6640 L524.0000 234.6745 L525.0000 235.2722 L526.0000 235.9431 L527.0000 235.1313 L528.0000 234.7708 L529.0000 235.0332 L530.0000 235.1033 L531.0000 234.3334 L532.0000 235.2761 L533.0000 235.5541 L534.0000 235.0507 L535.0000 235.4270 L536.0000 235.1985 L537.0000 234.4404 L538.0000 235.3412 L539.0000 235.6037 L540.0000 235.2218 L541.0000 235.3160 L542.0000 235.3271 L543.0000 234.9126 L544.0000 235.8402 L545.0000 235.3008 L546.0000 234.5822 L547.0000 234.2971 L548.0000 233.6581 L549.0000 233.8976 L550.0000 233.7674 L551.0000 234.1682 L552.0000 233.2542 L553.0000 234.0928 L554.0000 233.8392 L555.0000 234.0182 L556.0000 234.6831 L557.0000 235.0110 L558.0000 234.7112 L559.0000 234.0478 L560.0000 233.7485 L561.0000 233.0658 L562.0000 233.5702 L563.0000 232.8909 L564.0000 232.1420 L565.0000 232.4381 L566.0000 232.4076 L567.0000 232.8074 L568.0000 233.5622 L569.0000 234.1089 L570.0000 234.7958 L571.0000 235.3919 L572.0000 235.9861 L573.0000 234.9912 L574.0000 235.7683 L575.0000 235.8756 L576.0000 235.5302 L577.0000 235.3099 L578.0000 234.9901 L579.0000 235.7739 L580.0000 235.1180 L581.0000 234.4738 L582.0000 234.7226 L583.0000 235.3112 L584.0000 234.9781 L585.0000 235.5331 L586.0000 235.7847 L587.0000 235.8748 L588.0000 235.5038 L589.0000 235.6341 L590.0000 235.7473 L591.0000 235.3182 L592.0000 234.9137 L593.0000 234.7465 L594.0000 235.1896 L595.0000 234.6859 L596.0000 234.5049 L597.0000 235.1154 L598.0000 235.1802 L599.0000 234.4164 L600.0000 235.4041 L601.0000 235.1754 L602.0000 234.1836 L603.0000 234.2335 L604.0000 233.4152 L605.0000 232.7851 L606.0000 232.9954 L607.0000 232.2956 L608.0000 232.2602 L609.0000 232.4230 L610.0000 232.7260 L611.0000 232.9232 L612.0000 233.6053 L612 0 Z" /></svg>