<svg baseProfile="tiny" xmlns="http://www.w3.org/2000/svg" width="6000" height="736" viewBox="0 0 6000 736"><path fill-rule="evenodd" fill="#7F7F7F" d="M4600 5.537v658.518l-678 71.947-921-16.988c-143.32-2.33-286.68-4.664-430-6.995l-270-4.997c-71.66-1.332-323-7.994-323-7.994l-132 6.994-446 21.984v-684.5l499-30.976c25.997-1.665 124.333-9.762 124.333-9.762S2309.34 10.867 2382 12.532l261 5.996 391 7.994c342.3 7.993 684.7 15.99 1027 23.982l539-44.967zM-1261 50.504c342.3-7.993 684.7-15.99 1027-23.982l391-7.994 261-5.996c72.66-1.665 358.667-9.762 358.667-9.762S875.003 10.867 901 12.532l499 30.977v684.498l-446-21.984-132-6.995s-251.34 6.66-323 7.993l-270 4.996c-143.32 2.33-286.68 4.662-430 6.994l-921 16.988-678-71.947V5.537l539 44.967zM5139 50.504c342.3-7.993 684.7-15.99 1027-23.982l391-7.994 261-5.996c72.66-1.665 358.667-9.762 358.667-9.762s98.336 8.097 124.333 9.762l499 30.977v684.498l-446-21.984-132-6.995s-251.34 6.66-323 7.993l-270 4.996c-143.32 2.33-286.68 4.662-430 6.994l-921 16.988-678-71.947V5.537l539 44.967z"/></svg>