<?xml version="1.0" encoding="utf-8"?>
<!-- Generator: Adobe Illustrator 19.1.0, SVG Export Plug-In . SVG Version: 6.00 Build 0)  -->
<svg version="1.1" id="Layer_1" xmlns="http://www.w3.org/2000/svg" xmlns:xlink="http://www.w3.org/1999/xlink" x="0px" y="0px"
	 width="400px" height="400px" viewBox="-105 197 400 400" style="enable-background:new -105 197 400 400;" xml:space="preserve">
<style type="text/css">
	.st0{fill:#444444;}
</style>
<path class="st0" d="M141.2,556c-4.6,0-7.7-1.7-9.6-3.2c-3.3-2.7-5.1-6.8-5.1-11.4v-8.7c0.1-8,0.1-20.1,0.1-34
	c0-15-5.7-21.5-8.2-23.7l-11.9-10.2l15.6-1.7c32.2-3.6,65-14.7,65-70.1c0-14.4-4.8-26.9-14.2-37.2l-2.9-3.2l1.6-4
	c1.4-3.5,5.3-15.4-0.1-32.2c-4.8,0.4-15.9,2.8-34,15.1l-2.6,1.8l-3-0.8c-11.6-3.2-24.4-4.9-37.2-5c-12.7,0.1-25.6,1.8-37.1,5l-3,0.8
	l-2.6-1.8c-18.1-12.2-29.1-14.7-34.1-15.1c-5.4,16.7-1.5,28.7-0.1,32.1l1.6,4l-2.9,3.2C7.1,366,2.3,378.5,2.3,392.9
	c0,55.4,32.8,66.5,64.9,70.2l15.3,1.7L70.9,475c-2.3,2-6.2,6.8-7.6,16.6l-0.5,3.7l-3.4,1.5c-8.3,3.7-36.9,13.7-54-15.7
	c-0.1-0.1-1.2-2.1-3.3-4.5c2.7,3.7,5.5,8.6,7.9,14.7l0.2,0.5c0.3,0.9,8.2,24.1,44.5,16.2l8.2-1.8v8.4c0,7,0.1,13.1,0.1,17.8
	c0,4,0.1,7,0.1,8.7c0,4.5-1.9,8.6-5.1,11.3c-2.4,2-6.8,4.2-13.6,2.9l-0.9-0.2c-66.7-21.8-111.4-83.8-111.4-153.9
	c0-89.6,72.9-162.6,162.5-162.6s162.6,72.9,162.6,162.6c0,70.1-44.6,132-111.1,154.2l-0.9,0.2C143.8,555.9,142.4,556,141.2,556
	L141.2,556z M135.2,475c3.3,6.6,5.1,14.7,5.1,23.7c0,13.9-0.1,26.1-0.1,34.1v8.6c0,0.5,0.1,0.8,0.2,0.9c0.1,0,0.8,0.2,2,0
	c60.6-20.4,101.3-77.1,101.3-141.1c0-82.1-66.8-148.9-148.9-148.9S-54.1,319.1-54.1,401.2c0,64.1,40.7,120.7,101.3,141.1
	c1.2,0.2,1.9,0,2-0.1c0,0,0.2-0.3,0.2-0.8c0-1.7,0-4.6-0.1-8.6c0-2.8-0.1-6.1-0.1-9.8c-33.1,4-48.5-15-52.1-26.7
	c-5.8-14.6-13.7-18.8-13.7-18.9l-1-0.5c-3-2-10.9-7.5-8.6-14.8c2.1-6.6,10.2-7.2,13.6-7.2h0.4c19.1,1.3,28.9,18.8,29.4,19.6
	c9.5,16.2,23.8,14.7,33.3,11.3c0.8-3.9,2.1-7.5,3.7-10.8c-30.9-5.6-65.5-22.4-65.5-82.1c0-16.5,5.1-31,15.1-43.3
	c-2.2-7.7-4.7-23.1,2.9-42.2l1.2-3l3.1-1c2.6-0.8,17-4,46.1,15.1c12-3,24.7-4.6,37.7-4.7c13.1,0.1,25.8,1.6,37.8,4.7
	c29.2-19,43.5-15.9,46.1-15.1l3.1,1l1.2,3c7.6,19.1,5.2,34.5,2.9,42.2c10,12.3,15.1,26.8,15.1,43.3
	C200.8,452.7,166.1,469.4,135.2,475L135.2,475z"/>
</svg>
