<?xml version="1.0" encoding="utf-8"?>
<!-- Generator: Adobe Illustrator 19.1.0, SVG Export Plug-In . SVG Version: 6.00 Build 0)  -->
<svg version="1.1" id="Layer_1" xmlns="http://www.w3.org/2000/svg" xmlns:xlink="http://www.w3.org/1999/xlink" x="0px" y="0px"
	 width="400px" height="400px" viewBox="-105 197 400 400" style="enable-background:new -105 197 400 400;" xml:space="preserve">
<style type="text/css">
	.st0{fill:#444444;}
</style>
<path class="st0" d="M-18.8,539.2l3.5,22.3l101.2-15.6l-28.6-7.5"/>
<path class="st0" d="M203.1,457l-0.2-1.3l46.3-167.9L201,274.5v-28.2h-30.6l-1.2-7.8l-50.7,7.8H98.6l-73-20.1l-5.5,20.1h-50.9v23.1
	l-29,4.5l26,168.1l-17.9,64.8l20.9,5.8v24.8h200.5l-106.7,1l95.2,26.3l13.5,3.7l8.6-31H201v-9.3l12.7-2L203.1,457L203.1,457z
	 M229.1,299.1l-28,101.7V291.4C201.1,291.4,229.1,299.1,229.1,299.1z M37.1,246.2l0.2,0.1L37.1,246.2z M-14.5,262.6h199.2v204.9
	H-14.5V262.6z M-30.8,285.9v69l-10.4-67.4L-30.8,285.9z"/>
<path class="st0" d="M37.1,246.2v0.1h0.2 M3.5,348.4c0,8.6,7,15.6,15.6,15.6h47c8.6,0,15.6-7,15.6-15.6v-47c0-8.6-7-15.6-15.6-15.6
	h-47c-8.6,0-15.6,7-15.6,15.6C3.5,301.4,3.5,348.4,3.5,348.4z M19,292.1h47c5.2,0,9.3,4.2,9.3,9.3v47c0,5.2-4.2,9.3-9.3,9.3H19
	c-5.2,0-9.3-4.2-9.3-9.3v-47C9.7,296.3,13.9,292.1,19,292.1z M88.7,301.4v47c0,8.6,7,15.6,15.6,15.6h47c8.6,0,15.6-7,15.6-15.6v-47
	c0-8.6-7-15.6-15.6-15.6h-47C95.7,285.8,88.7,292.8,88.7,301.4L88.7,301.4z M160.6,301.4v47c0,5.2-4.2,9.3-9.3,9.3h-47
	c-5.2,0-9.3-4.2-9.3-9.3v-47c0-5.2,4.2-9.3,9.3-9.3h47C156.4,292.1,160.6,296.3,160.6,301.4z M81.6,384.6c0-8.6-7-15.6-15.6-15.6H19
	c-8.6,0-15.6,7-15.6,15.6v47c0,8.6,7,15.6,15.6,15.6h47c8.6,0,15.6-7,15.6-15.6V384.6z M9.7,431.6v-47c0-5.2,4.2-9.3,9.3-9.3h47
	c5.2,0,9.3,4.2,9.3,9.3v47c0,5.2-4.2,9.3-9.3,9.3H19C13.9,440.9,9.7,436.8,9.7,431.6z M104.2,447.2h47c8.6,0,15.6-7,15.6-15.6v-47
	c0-8.6-7-15.6-15.6-15.6h-47c-8.6,0-15.6,7-15.6,15.6v47C88.7,440.2,95.7,447.2,104.2,447.2L104.2,447.2z M160.6,384.6v47
	c0,5.2-4.2,9.3-9.3,9.3h-47c-5.2,0-9.3-4.2-9.3-9.3v-47c0-5.2,4.2-9.3,9.3-9.3h47C156.4,375.3,160.6,379.5,160.6,384.6z"/>
</svg>
