<?xml version="1.0" encoding="utf-8"?>
<!-- Generator: Adobe Illustrator 19.1.0, SVG Export Plug-In . SVG Version: 6.00 Build 0)  -->
<svg version="1.1" id="Layer_1" xmlns="http://www.w3.org/2000/svg" xmlns:xlink="http://www.w3.org/1999/xlink" x="0px" y="0px"
	 width="400px" height="400px" viewBox="-105 197 400 400" style="enable-background:new -105 197 400 400;" xml:space="preserve">
<style type="text/css">
	.st0{fill:#444444;}
</style>
<path class="st0" d="M192.3,404.6l64.2,113.6h-81.8V401.9 M-37.4,518.2V240l59,120.1v158.1 M44.4,518.2v-137l107.6,17v120"/>
<path class="st0" d="M-66.9,237.1c3.4,0,6.2,2.9,6.2,6.5v302H33L25,531l-3.3-6.1l-1.8-3.3h8V244.3c0-3,2.3-5.4,5.2-5.4
	s5.2,2.4,5.2,5.4v277.5h8l-1.8,3.3l-3.3,6.1l-8,14.6h130.4l-8-14.6L152,525l-1.8-3.3h8V244.3c0-3,2.3-5.4,5.2-5.4
	c2.9,0,5.2,2.4,5.2,5.4v277.5h8l-1.8,3.3l-3.3,6.1l-8,14.6h93.1c3.4,0,6.2,2.9,6.2,6.5s-2.8,6.5-6.2,6.5H-73.1v-315
	C-73.1,240-70.3,237.1-66.9,237.1L-66.9,237.1z"/>
</svg>
