<?xml version="1.0" encoding="utf-8"?>
<!-- Generator: Adobe Illustrator 19.1.0, SVG Export Plug-In . SVG Version: 6.00 Build 0)  -->
<svg version="1.1" id="Layer_1" xmlns="http://www.w3.org/2000/svg" xmlns:xlink="http://www.w3.org/1999/xlink" x="0px" y="0px"
	 width="400px" height="400px" viewBox="-105 197 400 400" style="enable-background:new -105 197 400 400;" xml:space="preserve">
<style type="text/css">
	.st0{fill:#444444;}
</style>
<path class="st0" d="M222.7,480.1c-34.5,16.9-79.9,26.1-127.9,26.1S1.5,497-33,480.1c-14.9-7.3-27.3-15.7-36.9-25.1
	c-2,5.1-3.1,10.3-3.1,15.7c0,45.3,75.1,82,167.8,82s167.8-36.7,167.8-82c0-5.4-1.1-10.6-3.1-15.7C250,464.4,237.6,472.9,222.7,480.1
	z"/>
<path class="st0" d="M94.9,485.3c92.7,0,167.8-36.7,167.8-82c0-8.1-2.5-15.9-6.9-23.4c-9,7.9-20,15.2-33,21.5
	c-34.5,16.9-79.9,26.1-127.9,26.1S1.5,418.2-33,401.4c-13-6.4-24-13.6-33-21.5c-4.5,7.4-6.9,15.2-6.9,23.4
	C-73,448.6,2.2,485.3,94.9,485.3L94.9,485.3z"/>
<path class="st0" d="M262.7,324.7c0,45.3-75.1,82-167.8,82S-73,370-73,324.7s75.1-82,167.8-82S262.7,279.5,262.7,324.7z"/>
<ellipse class="st0" cx="94.9" cy="324.7" rx="167.8" ry="82"/>
</svg>
