<?xml version="1.0" encoding="utf-8"?>
<!-- Generator: Adobe Illustrator 19.1.0, SVG Export Plug-In . SVG Version: 6.00 Build 0)  -->
<svg version="1.1" id="Layer_1" xmlns="http://www.w3.org/2000/svg" xmlns:xlink="http://www.w3.org/1999/xlink" x="0px" y="0px"
	 width="400px" height="400px" viewBox="-105 197 400 400" style="enable-background:new -105 197 400 400;" xml:space="preserve">
<style type="text/css">
	.st0{fill:#444444;}
</style>
<path class="st0" d="M194.3,359.8v-34.4c0-52.8-44.8-95.7-99.8-95.7s-99.8,42.9-99.8,95.7v34.4c-21,5.6-35.9,24-35.9,45.2v114.1
	c0,25.9,22,47,49,47h173.4c27,0,49-21.1,49-47V405C230.2,383.8,215.4,365.4,194.3,359.8z M125.4,358H63.7v-32.6
	c0-16.3,13.8-29.6,30.8-29.6s30.8,13.3,30.8,29.6L125.4,358L125.4,358z M114.6,486.5H74.5l5-33c-3.3-3.5-5.1-8.1-5.1-12.8
	c0-10.7,9-19.3,20.1-19.3s20.1,8.7,20.1,19.3c0,4.7-1.8,9.3-5.1,12.8L114.6,486.5L114.6,486.5z"/>
</svg>
