<?xml version="1.0" encoding="utf-8"?>
<!-- Generator: Adobe Illustrator 19.1.0, SVG Export Plug-In . SVG Version: 6.00 Build 0)  -->
<svg version="1.1" id="Layer_1" xmlns="http://www.w3.org/2000/svg" xmlns:xlink="http://www.w3.org/1999/xlink" x="0px" y="0px"
	 width="400px" height="400px" viewBox="-105 197 400 400" style="enable-background:new -105 197 400 400;" xml:space="preserve">
<style type="text/css">
	.st0{fill:#444444;}
</style>
<g>
	<path class="st0" d="M226.1,458.2L226.1,458.2c-0.3-0.2-0.5-0.4-1.1-0.8c-3-1.7-3.9-5-4-8.5c3.9-4.6,7.7-11.9,8.9-23.4
		c4.5-4.9,7-12.2,7-19.3c0-5-1.2-9.6-3.5-13.2c0,0,0-0.1-0.1-0.1c2.2-6.3,4.1-15,1.7-24.5c-4.8-19-28-27.6-48.9-27.6
		c-17.9,0-31.8,6.3-38.1,16.8c-4.8,2.7-7.5,6.4-9.1,9.4c-4.4,8.7-2.4,18.3,0.1,25.5c-0.1,0.2-0.2,0.3-0.3,0.5
		c-2.4,3.7-3.7,8.4-3.7,13.4s1.3,10,3.6,14.3c6.7,3.3,12.6,6.5,17.7,9.4c-0.8-3.3-1.3-7.1-1.3-12c-7.2,0-10.3-20.6,0-20.6
		c0-3-13.8-25.3,3-29.5c2.4-9.4,14.8-13.8,28.1-13.8c15.9,0,33.2,6.2,36,17.5c3.1,12.3-4.8,23.6-4.8,25.8c10,0,6.8,20.6-0.3,20.6
		c0,22.2-10.3,25.8-10.3,25.8v1.8c0,11.1,6.5,21.3,16.6,25.8c20.8,9.3,40.2,19.8,40.2,23.9v18c0,15.7-12.7,28.4-28.4,28.4h-43.6
		c0,4.9-1.4,9.4-3.7,13.3h47.3c23.1,0,41.7-18.7,41.7-41.7v-18C276.6,489.9,276.5,480,226.1,458.2z"/>
	<path class="st0" d="M98.8,417.2c-0.4-0.3-0.9-0.6-1.8-1.1c-7.1-4-5.6-15-4.1-21.1c5-5.6,10.2-14.4,12.3-28.9
		c0.6-3.9,2.1-7.6,4.4-10.7c4.5-6,6.9-14.3,6.9-22.5c0-6.3-1.5-12-4.3-16.5c-0.6-1-1.3-2-2.1-2.8c3.5-9,7.4-22.5,3.7-37.2
		c-6.4-25.4-39.9-37-68.4-37c-25.9,0-45.6,9-53.5,24.1c-7,3.4-10.7,8.3-12.8,12.3c-6.3,12.3-2,27.1,1.8,37.3c-0.9,1-1.8,2.1-2.5,3.3
		c-2.9,4.6-4.5,10.4-4.5,16.8c0,8,2.4,16.2,6.8,22.2c2.3,3.2,3.9,6.9,4.5,10.8c2.2,14.7,7.5,23.7,12.6,29.2
		c1.5,6.2,2.8,16.9-4.1,20.8c-0.7,0.4-1.2,0.7-1.5,0.9c-79.3,33.5-79.6,47.8-79.6,53.4v43.2c0,23.1,18.7,41.7,41.7,41.7h181.8
		c23.1,0,41.7-18.7,41.7-41.7v-43.2C177.9,464.8,177.7,450.5,98.8,417.2z M164.7,513.5L164.7,513.5c-0.1,15.7-12.8,28.4-28.5,28.4
		H-45.6c-15.7,0-28.4-12.7-28.4-28.4v-43.2c0-6.8,35.2-25.4,70.3-40.5c10.4-4.5,17.2-14.7,17.2-26.1c0-6.4-1.9-12.8-6.1-17.6
		c-4.5-5.1-9.8-15.3-9.8-35c-8.5,0-13.3-18.7-7.9-27.4c3.6-5.8,4.8-12.6,2.6-19.1c-3.9-11.8-6.2-26.7,10-30.8
		c3.6-14.5,22.8-21.2,43.3-21.2c24.6,0,51.1,9.6,55.4,26.9c2.4,9.5,0.5,18.6-1.9,25.7c-2.1,6.2-1.1,12.8,2.2,18.5
		c5.1,8.8,0.2,27.3-8.2,27.3c0,19.7-5.3,29.9-9.8,35c-4.2,4.8-6.1,11.2-6.1,17.6c0,11.4,6.8,21.6,17.2,26.1
		c35.1,15.2,70.3,33.7,70.3,40.5V513.5z"/>
</g>
</svg>
